<?xml version="1.0" encoding="utf-8"?>
<!-- Generator: Adobe Illustrator 22.1.0, SVG Export Plug-In . SVG Version: 6.00 Build 0)  -->
<svg version="1.1" id="Layer_1" xmlns="http://www.w3.org/2000/svg" xmlns:xlink="http://www.w3.org/1999/xlink" x="0px" y="0px"
	 viewBox="0 0 716.8 189.5" style="enable-background:new 0 0 716.8 189.5;" xml:space="preserve">
<style type="text/css">
	.st0{fill-rule:evenodd;clip-rule:evenodd;}
</style>
<g>
	<path class="st0" d="M533.9,3.2C487.4-3.1,450.5,33.9,428,56.4c-21.6-12.6-11.2-47,12.5-48.9C419-9.9,391.1,9.5,391,28.9
		c-0.3,18,17,28.8,28,37.8c-17,18.2-23.9,61.3,5.6,68.5c26.8,6.6,69.8-7.3,65.4-35.6c-0.5-4.3-4.5-7.5-11.5-8
		c-1.4,17.6-32.4,23.8-38,7.5c-2.5-7.3,0.9-18.7,6.3-24.7c33.5,5.7,62.1,1,85.9-13.8C551.6,48.6,586.1,11,533.9,3.2z M546.4,37.3
		c-14.2,22.2-55.9,36.3-95.8,30c16.8-19.7,46.5-48.6,79.3-52.4C546.6,12.9,555.5,22.9,546.4,37.3z"/>
	<path class="st0" d="M176.1,1.5C126.5,12.7,98.5,56.3,88,89.3c-19.1,3.5-33.6-21.5-7.2-27c-17.6-17.2-51.4,6.4-37.9,26.6
		c7.5,11.5,25.3,10.1,41.2,11.9c-4.9,10-9.9,19.9-15.3,29.6c-28.3-1.5-70.9,17.2-68.6,39.1c3,30,53.7,1.7,62.6-13.5
		c26.8,15.2,85.6-5.2,83.7-34.7c-14.5,14.1-44.4,12.4-60.4,8.5c6.5-9.1,11-25.8,23.4-33.8c3.3-2.1,9.5-3.3,13.5-4.5
		c30.6-9.2,69.2-35,82-56.1C218.2,13.2,208.2-5.5,176.1,1.5z M11.2,170.8c-6.2-12.9,30.5-19.9,39.8-15.6
		C48,164,16.8,182.4,11.2,170.8z M190.2,40c-15.3,17.7-51,37.3-77.7,45c12.1-21.6,33.2-56,59.6-71.7c6.4-3.8,15.4-7.8,25.1-5.2
		C207.3,14.6,196.1,33,190.2,40z"/>
	<path class="st0" d="M662.1,118.6c17.2-13.1,36.2-24,54.7-36c-6.6-2.1-13.3-4.2-19.9-6.2c-29.5,17.5-58,39.1-88.1,53.4
		c-9.6,4.5-20.8,12.2-33.3,8.8c12.5-11.7,42.8-32.7,33-50c-7.7-9.4-28.3-4.2-34.6-4.5c9-7.4,18.7-14,27.5-21.9c-6-1.3-12-2.6-18-3.8
		c-31.8,21.7-61.2,45.3-94.2,63.7c4.9,4.6,14.3-7.2,19.2-5.8c-27.2,22.4-52.9,45.9-76.2,71c8.2,0.7,16.3,1.4,24.5,2.3
		c23.6-22.1,48.6-49.3,73.5-68c-14.6,35.9,27,31.5,41.3,21c14.8,4.3,20.8-3.7,32-4.4c-3.9,2.8-9,6.6-13.8,10.2
		c-4.2,3.2-11.1,6.9-10.4,10.1c7.1,1.5,14.2,3.2,21.3,4.9c16.9-9.5,35.1-32.1,55.3-38.6c5.4-1.8,20.2-3.7,24.9,4.3
		c3.5,8.1-41.8,17.2-42.8,36.8c1.3,10.8,36.9,7.2,49.9-0.4c-4.3-3-15.7,5.9-20.5-2.5c8.2-17,42.4-20.4,36-35.6
		C694.4,116.3,674.1,117.7,662.1,118.6z M547.8,121.7c-0.3-14.9,24.7-30.2,40.1-32c4.4-0.5,8.7-0.2,11.2,3.1
		c2.3,5.2-13.3,18.9-22.2,24.1C569,121.4,553.2,130.8,547.8,121.7z"/>
	<path class="st0" d="M355.8,108.4c-4-1.8-11.2,2.4-17.7-1.4c2.6-10.6,7.3-21.5-6.8-23.4c-15.8,0.4-9.5,22.5-4.7,23.7
		c-6.5,16.6-30.8,19.7-39.3,10.6c-4-12.1,7.2-22,14.2-31.4c23.1-31,35.9-47,45.5-58.6c3-3.6,7.3-6.8,6.9-10.9c-5.7,0-11.5,0-17.2,0
		c-23.3,24.6-41.1,54.2-64,78c-9.8,10.2-21.1,21.9-36.3,26.9c-3.5,0.3-2.7-0.4-2.4-2.8c5.7-22.2,24.4-34.5,33.4-54.7
		c-15.6-7.4-20.6,7.9-25.7,11c-2.9,1.8-0.5-8.7-13-8.3c-23.6-3-52,27.8-66.5,46.4c-4.5,5.7-12.8,9-12.4,16.2
		c4.7,3.1,5.9-7.1,8.8-5.6c-3.1,7.2-1,19,5.9,22.2c18.1,4.4,30.6-12.5,42.6-20.3c-1.1,3.5-2.5,9.8,0.5,12
		c13.5,9.6,39.4-18.1,58.5-29.8c-1.6,6-5.2,12.9-2.9,18.2c12.3,28.7,65.7,6.6,72.6-12.4C342.8,118.8,356.7,114,355.8,108.4z
		 M188.3,122.4c-5.8-9.2,12-40.1,29.2-46.6c22.1-8.5,17.9,9.5,10.9,19.9C219.6,108.3,199.1,130,188.3,122.4z"/>
</g>
</svg>
